<svg width="90" height="90" viewBox="0 0 90 90" fill="none" xmlns="http://www.w3.org/2000/svg">
<path d="M11.25 22.5H23.1375L30 15H52.5V22.5H33.3L26.4375 30H11.25V75H71.25V41.25H78.75V75C78.75 79.125 75.375 82.5 71.25 82.5H11.25C7.125 82.5 3.75 79.125 3.75 75V30C3.75 25.875 7.125 22.5 11.25 22.5ZM60 52.5C60 62.85 51.6 71.25 41.25 71.25C30.9 71.25 22.5 62.85 22.5 52.5C22.5 42.15 30.9 33.75 41.25 33.75C51.6 33.75 60 42.15 60 52.5ZM41.25 41.25C35.0625 41.25 30 46.3125 30 52.5C30 58.6875 35.0625 63.75 41.25 63.75C47.4375 63.75 52.5 58.6875 52.5 52.5C52.5 46.3125 47.4375 41.25 41.25 41.25ZM71.25 22.5H60V15H71.25V3.75H78.75V15H90V22.5H78.75V33.75H71.25V22.5Z" fill="white"/>
</svg>
