<svg width="53" height="53" viewBox="0 0 53 53" fill="none" xmlns="http://www.w3.org/2000/svg">
<path d="M30.5192 48.5833H22.4808C21.9772 48.5834 21.4886 48.4113 21.0962 48.0956C20.7038 47.7799 20.4311 47.3396 20.3233 46.8476L19.4245 42.6871C18.2255 42.1617 17.0886 41.5048 16.0347 40.7283L11.978 42.0202C11.4978 42.1733 10.9797 42.1576 10.5097 41.9756C10.0397 41.7936 9.64612 41.4563 9.39426 41.0198L5.36626 34.0613C5.11704 33.6244 5.02349 33.1158 5.10091 32.6187C5.17833 32.1217 5.42215 31.6657 5.79247 31.3252L8.93934 28.4544C8.79624 27.1539 8.79624 25.8417 8.93934 24.5412L5.79247 21.677C5.42163 21.3364 5.17748 20.88 5.10004 20.3824C5.02261 19.8849 5.11647 19.3759 5.36626 18.9387L9.38543 11.9758C9.63729 11.5392 10.0309 11.202 10.5009 11.02C10.9709 10.838 11.489 10.8223 11.9692 10.9754L16.0259 12.2673C16.5647 11.8698 17.1256 11.4988 17.7042 11.1631C18.2629 10.8495 18.8371 10.5647 19.4245 10.3107L20.3255 6.15463C20.4328 5.6626 20.705 5.22202 21.097 4.90592C21.489 4.58982 21.9773 4.4172 22.4808 4.41667H30.5192C31.0228 4.4172 31.511 4.58982 31.903 4.90592C32.295 5.22202 32.5672 5.6626 32.6745 6.15463L33.5843 10.3129C34.7826 10.8383 35.9188 11.4952 36.9719 12.2717L41.0308 10.9798C41.5107 10.8273 42.0283 10.8433 42.4978 11.0252C42.9674 11.2072 43.3606 11.5441 43.6124 11.9802L47.6315 18.9431C48.1439 19.8419 47.9672 20.9792 47.2053 21.6792L44.0585 24.55C44.2016 25.8505 44.2016 27.1627 44.0585 28.4632L47.2053 31.334C47.9672 32.0363 48.1439 33.1714 47.6315 34.0702L43.6124 41.033C43.3605 41.4696 42.9669 41.8069 42.4969 41.9888C42.0269 42.1708 41.5088 42.1865 41.0286 42.0334L36.9719 40.7415C35.9188 41.5174 34.7827 42.1737 33.5843 42.6981L32.6745 46.8476C32.5668 47.3392 32.2944 47.7793 31.9024 48.0949C31.5105 48.4106 31.0224 48.5829 30.5192 48.5833ZM16.8275 35.839L18.6383 37.164C19.0469 37.4644 19.4709 37.7404 19.9125 37.9922C20.3277 38.2329 20.7517 38.4493 21.1912 38.6458L23.2516 39.549L24.2608 44.1667H28.7437L29.7529 39.5468L31.8133 38.6436C32.7121 38.2461 33.5667 37.7537 34.3595 37.1729L36.1703 35.8479L40.6797 37.2833L42.9212 33.401L39.4254 30.2144L39.6727 27.9796C39.7831 27.0013 39.7831 26.0142 39.6727 25.0381L39.4254 22.8033L42.9234 19.61L40.6797 15.7255L36.1725 17.161L34.3595 15.836C33.5662 15.2523 32.7126 14.7555 31.8133 14.3542L29.7529 13.451L28.7437 8.83333H24.2608L23.2449 13.4532L21.1912 14.3542C20.2906 14.7486 19.4366 15.2419 18.645 15.8249L16.8319 17.1499L12.3269 15.7145L10.0811 19.61L13.5768 22.7922L13.3295 25.0293C13.2191 26.0075 13.2191 26.9947 13.3295 27.9708L13.5768 30.2056L10.0811 33.3922L12.3225 37.2745L16.8275 35.839ZM26.4912 35.3333C24.1484 35.3333 21.9016 34.4027 20.2451 32.7461C18.5885 31.0895 17.6578 28.8427 17.6578 26.5C17.6578 24.1573 18.5885 21.9105 20.2451 20.2539C21.9016 18.5973 24.1484 17.6667 26.4912 17.6667C28.8339 17.6667 31.0807 18.5973 32.7373 20.2539C34.3939 21.9105 35.3245 24.1573 35.3245 26.5C35.3245 28.8427 34.3939 31.0895 32.7373 32.7461C31.0807 34.4027 28.8339 35.3333 26.4912 35.3333ZM26.4912 22.0833C25.6263 22.0842 24.7807 22.339 24.0593 22.8161C23.3379 23.2932 22.7725 23.9716 22.4331 24.7671C22.0938 25.5626 21.9955 26.4403 22.1504 27.2912C22.3053 28.142 22.7067 28.9287 23.3046 29.5536C23.9026 30.1785 24.6709 30.614 25.5141 30.8062C26.3574 30.9984 27.2385 30.9388 28.0482 30.6348C28.8579 30.3308 29.5605 29.7957 30.0688 29.096C30.5772 28.3963 30.8689 27.5628 30.9078 26.6988V27.5821V26.5C30.9078 25.3286 30.4425 24.2052 29.6142 23.3769C28.7859 22.5487 27.6625 22.0833 26.4912 22.0833Z" fill="white"/>
</svg>
