<svg width="42" height="42" viewBox="0 0 42 42" fill="none" xmlns="http://www.w3.org/2000/svg">
<path d="M15.2985 15.1935C13.4208 16.7895 12.733 19.6997 14.3535 22.0342C15.8763 24.2239 17.7774 26.1244 19.9675 27.6465C22.302 29.267 25.2123 28.5793 26.8083 26.7015L26.8258 26.7102C28.864 27.655 31.0276 28.3016 33.25 28.63V33.25H33.243C19.2885 33.2693 8.73427 22.5943 8.75002 8.757V8.75H13.37V8.75175C13.699 10.9743 14.3465 13.1372 15.2898 15.1742L15.2985 15.1918V15.1935ZM33.25 36.75H35C35.4642 36.75 35.9093 36.5656 36.2375 36.2374C36.5656 35.9093 36.75 35.4641 36.75 35V27.1215C36.7504 26.7017 36.5998 26.2957 36.3258 25.9777C36.0518 25.6596 35.6725 25.4507 35.2573 25.389L33.7628 25.1685C31.8722 24.8879 30.0317 24.3375 28.2975 23.534L26.9798 22.9233C26.6097 22.7518 26.1915 22.715 25.7972 22.8192C25.4029 22.9233 25.0574 23.1619 24.8203 23.4937L24.2235 24.3285C23.7003 25.0618 22.701 25.284 21.9643 24.7712C20.1171 23.4872 18.5135 21.8842 17.2288 20.0375C16.716 19.299 16.94 18.2998 17.6715 17.7783L18.5063 17.1833C18.8385 16.9461 19.0774 16.6003 19.1815 16.2056C19.2857 15.8109 19.2487 15.3922 19.0768 15.022L18.4643 13.7025C17.6616 11.9682 17.1118 10.1277 16.8315 8.23725L16.6093 6.74275C16.5476 6.3275 16.3386 5.94827 16.0206 5.67424C15.7025 5.40021 15.2966 5.24964 14.8768 5.25H7.00002C6.53589 5.25 6.09077 5.43438 5.76258 5.76256C5.43439 6.09075 5.25002 6.53587 5.25002 7V8.75175C5.23252 24.514 17.3425 36.7728 33.2483 36.75H33.25Z" fill="#9747FF"/>
</svg>
