<svg width="42" height="42" viewBox="0 0 42 42" fill="none" xmlns="http://www.w3.org/2000/svg">
<path d="M31.9635 8.06368C28.0998 4.20001 21.808 4.20001 17.9484 8.06368L7.24336 18.7606C7.17363 18.8303 7.13672 18.9246 7.13672 19.0231C7.13672 19.1215 7.17363 19.2158 7.24336 19.2856L8.75684 20.799C8.82602 20.8679 8.91966 20.9066 9.01729 20.9066C9.11491 20.9066 9.20855 20.8679 9.27773 20.799L19.9828 10.1022C21.3117 8.77325 23.0795 8.04317 24.958 8.04317C26.8365 8.04317 28.6043 8.77325 29.9291 10.1022C31.258 11.4311 31.9881 13.1988 31.9881 15.0732C31.9881 16.9518 31.258 18.7154 29.9291 20.0443L19.0189 30.9504L17.2512 32.7182C15.5982 34.3711 12.9117 34.3711 11.2588 32.7182C10.459 31.9184 10.0201 30.8561 10.0201 29.724C10.0201 28.592 10.459 27.5297 11.2588 26.7299L22.0828 15.91C22.3576 15.6393 22.7186 15.4875 23.1041 15.4875H23.1082C23.4937 15.4875 23.8506 15.6393 24.1213 15.91C24.3961 16.1848 24.5438 16.5457 24.5438 16.9313C24.5438 17.3127 24.392 17.6736 24.1213 17.9443L15.2742 26.7832C15.2045 26.8529 15.1676 26.9473 15.1676 27.0457C15.1676 27.1441 15.2045 27.2385 15.2742 27.3082L16.7877 28.8217C16.8569 28.8906 16.9505 28.9292 17.0481 28.9292C17.1458 28.9292 17.2394 28.8906 17.3086 28.8217L26.1516 19.9787C26.9678 19.1625 27.4148 18.0797 27.4148 16.9272C27.4148 15.7746 26.9637 14.6877 26.1516 13.8756C24.4658 12.1898 21.726 12.194 20.0402 13.8756L18.9902 14.9297L9.22031 24.6955C8.55722 25.3547 8.03159 26.139 7.67392 27.0029C7.31625 27.8668 7.13365 28.7931 7.13672 29.7281C7.13672 31.6272 7.8791 33.4113 9.22031 34.7525C10.6107 36.1389 12.4318 36.832 14.2529 36.832C16.074 36.832 17.8951 36.1389 19.2814 34.7525L31.9635 22.0787C33.8297 20.2084 34.8633 17.7188 34.8633 15.0732C34.8674 12.4236 33.8338 9.93399 31.9635 8.06368Z" fill="#333333"/>
</svg>
