<svg width="35" height="34" viewBox="0 0 35 34" fill="none" xmlns="http://www.w3.org/2000/svg">
<path d="M2.65828 0.182335L33.9437 15.145C34.2599 15.296 34.527 15.5334 34.7139 15.8298C34.9008 16.1262 35 16.4695 35 16.8199C35 17.1703 34.9008 17.5136 34.7139 17.81C34.527 18.1064 34.2599 18.3438 33.9437 18.4948L2.65828 33.4575C2.33756 33.6111 1.97946 33.6693 1.62659 33.6253C1.27372 33.5812 0.940929 33.4367 0.667818 33.209C0.394706 32.9812 0.192771 32.6798 0.086038 32.3406C-0.0206947 32.0014 -0.0277315 31.6386 0.0657652 31.2955L3.19579 19.8207C3.23411 19.6801 3.31297 19.5539 3.42255 19.4578C3.53213 19.3616 3.66757 19.2999 3.812 19.2803L18.9722 17.2208C19.0355 17.2118 19.0955 17.1865 19.1462 17.1475C19.1969 17.1085 19.2367 17.057 19.2617 16.9981L19.2884 16.906C19.3001 16.8231 19.2835 16.7387 19.2412 16.6665C19.1988 16.5942 19.1333 16.5384 19.0553 16.5081L18.9736 16.4858L3.82833 14.4263C3.68417 14.4064 3.54905 14.3446 3.43976 14.2485C3.33047 14.1524 3.25183 14.0263 3.21361 13.8859L0.0657652 2.34574C-0.0281101 2.00254 -0.0213598 1.63959 0.0852121 1.30012C0.191784 0.960647 0.393686 0.658962 0.66687 0.430995C0.940054 0.203029 1.27301 0.0583892 1.62607 0.0143034C1.97914 -0.0297824 2.33743 0.0285439 2.65828 0.182335V0.182335Z" fill="white"/>
</svg>
