<svg width="38" height="38" viewBox="0 0 38 38" fill="none" xmlns="http://www.w3.org/2000/svg">
<path d="M11.875 7.125C11.875 5.23533 12.6257 3.42306 13.9619 2.08686C15.2981 0.750667 17.1103 0 19 0C20.8897 0 22.7019 0.750667 24.0381 2.08686C25.3743 3.42306 26.125 5.23533 26.125 7.125V19C26.125 20.8897 25.3743 22.7019 24.0381 24.0381C22.7019 25.3743 20.8897 26.125 19 26.125C17.1103 26.125 15.2981 25.3743 13.9619 24.0381C12.6257 22.7019 11.875 20.8897 11.875 19V7.125Z" fill="white"/>
<path d="M8.3125 15.4375C8.62744 15.4375 8.92949 15.5626 9.15219 15.7853C9.37489 16.008 9.5 16.3101 9.5 16.625V19C9.5 21.5196 10.5009 23.9359 12.2825 25.7175C14.0641 27.4991 16.4804 28.5 19 28.5C21.5196 28.5 23.9359 27.4991 25.7175 25.7175C27.4991 23.9359 28.5 21.5196 28.5 19V16.625C28.5 16.3101 28.6251 16.008 28.8478 15.7853C29.0705 15.5626 29.3726 15.4375 29.6875 15.4375C30.0024 15.4375 30.3045 15.5626 30.5272 15.7853C30.7499 16.008 30.875 16.3101 30.875 16.625V19C30.875 21.9439 29.7816 24.7828 27.8068 26.9661C25.832 29.1493 23.1166 30.5212 20.1875 30.8156V35.625H27.3125C27.6274 35.625 27.9295 35.7501 28.1522 35.9728C28.3749 36.1955 28.5 36.4976 28.5 36.8125C28.5 37.1274 28.3749 37.4295 28.1522 37.6522C27.9295 37.8749 27.6274 38 27.3125 38H10.6875C10.3726 38 10.0705 37.8749 9.84781 37.6522C9.62511 37.4295 9.5 37.1274 9.5 36.8125C9.5 36.4976 9.62511 36.1955 9.84781 35.9728C10.0705 35.7501 10.3726 35.625 10.6875 35.625H17.8125V30.8156C14.8834 30.5212 12.168 29.1493 10.1932 26.9661C8.21841 24.7828 7.12496 21.9439 7.125 19V16.625C7.125 16.3101 7.25011 16.008 7.47281 15.7853C7.69551 15.5626 7.99756 15.4375 8.3125 15.4375Z" fill="white"/>
</svg>
