<svg width="57" height="57" viewBox="0 0 57 57" fill="none" xmlns="http://www.w3.org/2000/svg">
<path d="M45.125 32.2668V23.75C45.125 16.1096 39.9356 9.67337 32.9056 7.73775C32.2098 5.985 30.5093 4.75 28.5 4.75C26.4908 4.75 24.7903 5.985 24.0944 7.73775C17.0644 9.67575 11.875 16.1096 11.875 23.75V32.2668L7.82088 36.3209C7.5999 36.5411 7.42466 36.8028 7.30523 37.0909C7.1858 37.3791 7.12455 37.6881 7.125 38V42.75C7.125 43.3799 7.37522 43.984 7.82062 44.4294C8.26602 44.8748 8.87011 45.125 9.5 45.125H47.5C48.1299 45.125 48.734 44.8748 49.1794 44.4294C49.6248 43.984 49.875 43.3799 49.875 42.75V38C49.8755 37.6881 49.8142 37.3791 49.6948 37.0909C49.5754 36.8028 49.4001 36.5411 49.1791 36.3209L45.125 32.2668ZM45.125 40.375H11.875V38.9832L15.9291 34.9291C16.1501 34.7089 16.3254 34.4472 16.4448 34.1591C16.5642 33.8709 16.6255 33.5619 16.625 33.25V23.75C16.625 17.2021 21.9521 11.875 28.5 11.875C35.0479 11.875 40.375 17.2021 40.375 23.75V33.25C40.375 33.8818 40.6244 34.485 41.0709 34.9291L45.125 38.9832V40.375ZM28.5 52.25C29.9708 52.2519 31.4057 51.7954 32.6052 50.9441C33.8046 50.0929 34.7091 48.889 35.1928 47.5H21.8073C22.291 48.889 23.1954 50.0929 24.3948 50.9441C25.5943 51.7954 27.0292 52.2519 28.5 52.25Z" fill="white"/>
</svg>
