<svg width="43" height="43" viewBox="0 0 43 43" fill="none" xmlns="http://www.w3.org/2000/svg">
<path d="M16.125 16.125C15.7686 16.125 15.4268 16.2666 15.1748 16.5186C14.9228 16.7706 14.7812 17.1124 14.7812 17.4688C14.7812 17.8251 14.6397 18.1669 14.3877 18.4189C14.1357 18.6709 13.7939 18.8125 13.4375 18.8125C13.0811 18.8125 12.7393 18.6709 12.4873 18.4189C12.2353 18.1669 12.0938 17.8251 12.0938 17.4688C12.0938 16.3996 12.5185 15.3742 13.2745 14.6182C14.0305 13.8622 15.0558 13.4375 16.125 13.4375C17.1942 13.4375 18.2195 13.8622 18.9755 14.6182C19.7315 15.3742 20.1562 16.3996 20.1562 17.4688C20.1562 17.8251 20.0147 18.1669 19.7627 18.4189C19.5107 18.6709 19.1689 18.8125 18.8125 18.8125C18.4561 18.8125 18.1143 18.6709 17.8623 18.4189C17.6103 18.1669 17.4688 17.8251 17.4688 17.4688C17.4688 17.1124 17.3272 16.7706 17.0752 16.5186C16.8232 16.2666 16.4814 16.125 16.125 16.125ZM26.875 16.125C26.5186 16.125 26.1768 16.2666 25.9248 16.5186C25.6728 16.7706 25.5312 17.1124 25.5312 17.4688C25.5312 17.8251 25.3897 18.1669 25.1377 18.4189C24.8857 18.6709 24.5439 18.8125 24.1875 18.8125C23.8311 18.8125 23.4893 18.6709 23.2373 18.4189C22.9853 18.1669 22.8438 17.8251 22.8438 17.4688C22.8438 16.3996 23.2685 15.3742 24.0245 14.6182C24.7805 13.8622 25.8058 13.4375 26.875 13.4375C27.9442 13.4375 28.9695 13.8622 29.7255 14.6182C30.4815 15.3742 30.9062 16.3996 30.9062 17.4688C30.9062 17.8251 30.7647 18.1669 30.5127 18.4189C30.2607 18.6709 29.9189 18.8125 29.5625 18.8125C29.2061 18.8125 28.8643 18.6709 28.6123 18.4189C28.3603 18.1669 28.2188 17.8251 28.2188 17.4688C28.2188 17.1124 28.0772 16.7706 27.8252 16.5186C27.5732 16.2666 27.2314 16.125 26.875 16.125ZM12.1878 21.5C11.9955 21.5 11.8054 21.5413 11.6304 21.6212C11.4554 21.701 11.2996 21.8174 11.1734 21.9627C11.0473 22.1079 10.9539 22.2785 10.8993 22.463C10.8448 22.6474 10.8306 22.8414 10.8575 23.0319C11.2226 25.5943 12.5001 27.939 14.4551 29.6353C16.4102 31.3315 18.9117 32.2654 21.5 32.2654C24.0883 32.2654 26.5898 31.3315 28.5449 29.6353C30.4999 27.939 31.7774 25.5943 32.1425 23.0319C32.1695 22.8412 32.1551 22.647 32.1005 22.4623C32.0458 22.2777 31.9521 22.1069 31.8257 21.9617C31.6993 21.8164 31.5431 21.7 31.3678 21.6203C31.1925 21.5407 31.0021 21.4996 30.8095 21.5H12.1878ZM21.5 29.5625C19.8322 29.5626 18.2053 29.0458 16.8433 28.0832C15.4813 27.1207 14.4511 25.7597 13.8944 24.1875H29.1056C28.5489 25.7597 27.5187 27.1207 26.1567 28.0832C24.7947 29.0458 23.1678 29.5626 21.5 29.5625ZM37.625 21.5C37.625 19.3824 37.2079 17.2856 36.3976 15.3292C35.5872 13.3729 34.3994 11.5952 32.9021 10.0979C31.4048 8.60056 29.6271 7.4128 27.6708 6.60244C25.7144 5.79209 23.6176 5.375 21.5 5.375C19.3824 5.375 17.2856 5.79209 15.3292 6.60244C13.3729 7.4128 11.5952 8.60056 10.0979 10.0979C8.60056 11.5952 7.4128 13.3729 6.60244 15.3292C5.79209 17.2856 5.375 19.3824 5.375 21.5C5.375 25.7766 7.07388 29.8781 10.0979 32.9021C13.1219 35.9261 17.2234 37.625 21.5 37.625C25.7766 37.625 29.8781 35.9261 32.9021 32.9021C35.9261 29.8781 37.625 25.7766 37.625 21.5ZM8.0625 21.5C8.0625 17.9362 9.47823 14.5183 11.9983 11.9983C14.5183 9.47823 17.9362 8.0625 21.5 8.0625C25.0638 8.0625 28.4817 9.47823 31.0017 11.9983C33.5218 14.5183 34.9375 17.9362 34.9375 21.5C34.9375 25.0638 33.5218 28.4817 31.0017 31.0017C28.4817 33.5218 25.0638 34.9375 21.5 34.9375C17.9362 34.9375 14.5183 33.5218 11.9983 31.0017C9.47823 28.4817 8.0625 25.0638 8.0625 21.5Z" fill="#333333"/>
</svg>
