<svg width="54" height="54" viewBox="0 0 54 54" fill="none" xmlns="http://www.w3.org/2000/svg">
<path fill-rule="evenodd" clip-rule="evenodd" d="M22.8105 4.08375C23.8183 3.78142 24.8828 3.71888 25.9191 3.90112C26.9554 4.08335 27.9347 4.50532 28.7789 5.13333C29.6231 5.76134 30.3088 6.578 30.7812 7.51813C31.2537 8.45826 31.4998 9.49582 31.5 10.548V43.452C31.4998 44.5042 31.2537 45.5417 30.7812 46.4819C30.3088 47.422 29.6231 48.2387 28.7789 48.8667C27.9347 49.4947 26.9554 49.9166 25.9191 50.0989C24.8828 50.2811 23.8183 50.2186 22.8105 49.9162L9.3105 45.8662C7.92023 45.4492 6.70142 44.5951 5.83488 43.4307C4.96835 42.2662 4.50024 40.8535 4.5 39.402V14.598C4.50024 13.1465 4.96835 11.7338 5.83488 10.5693C6.70142 9.4049 7.92023 8.5508 9.3105 8.13375L22.8105 4.08375ZM33.75 9C33.75 8.40326 33.9871 7.83096 34.409 7.40901C34.831 6.98705 35.4033 6.75 36 6.75H42.75C44.5402 6.75 46.2571 7.46115 47.523 8.72703C48.7888 9.9929 49.5 11.7098 49.5 13.5V15.75C49.5 16.3467 49.2629 16.919 48.841 17.341C48.419 17.7629 47.8467 18 47.25 18C46.6533 18 46.081 17.7629 45.659 17.341C45.237 16.919 45 16.3467 45 15.75V13.5C45 12.9033 44.7629 12.331 44.341 11.909C43.919 11.487 43.3467 11.25 42.75 11.25H36C35.4033 11.25 34.831 11.0129 34.409 10.591C33.9871 10.169 33.75 9.59673 33.75 9ZM47.25 36C47.8467 36 48.419 36.237 48.841 36.659C49.2629 37.081 49.5 37.6533 49.5 38.25V40.5C49.5 42.2902 48.7888 44.0071 47.523 45.273C46.2571 46.5388 44.5402 47.25 42.75 47.25H36C35.4033 47.25 34.831 47.0129 34.409 46.591C33.9871 46.169 33.75 45.5967 33.75 45C33.75 44.4033 33.9871 43.831 34.409 43.409C34.831 42.987 35.4033 42.75 36 42.75H42.75C43.3467 42.75 43.919 42.5129 44.341 42.091C44.7629 41.669 45 41.0967 45 40.5V38.25C45 37.6533 45.237 37.081 45.659 36.659C46.081 36.237 46.6533 36 47.25 36ZM20.25 24.75C19.6533 24.75 19.081 24.987 18.659 25.409C18.2371 25.831 18 26.4033 18 27C18 27.5967 18.2371 28.169 18.659 28.591C19.081 29.0129 19.6533 29.25 20.25 29.25H20.2522C20.849 29.25 21.4213 29.0129 21.8432 28.591C22.2652 28.169 22.5022 27.5967 22.5022 27C22.5022 26.4033 22.2652 25.831 21.8432 25.409C21.4213 24.987 20.849 24.75 20.2522 24.75H20.25Z" fill="white"/>
<path d="M47.25 27L42.75 31.5M36 27H47.25H36ZM47.25 27L42.75 22.5L47.25 27Z" stroke="white" stroke-width="4.16667" stroke-linecap="round" stroke-linejoin="round"/>
</svg>
