<svg width="48" height="48" viewBox="0 0 48 48" fill="none" xmlns="http://www.w3.org/2000/svg">
<path d="M12 10.5C10.4087 10.5 8.88258 11.1321 7.75736 12.2574C6.63214 13.3826 6 14.9087 6 16.5V31.5C6 33.0913 6.63214 34.6174 7.75736 35.7426C8.88258 36.8679 10.4087 37.5 12 37.5H27C28.5913 37.5 30.1174 36.8679 31.2426 35.7426C32.3679 34.6174 33 33.0913 33 31.5V30L38.4 34.05C38.7343 34.3007 39.1318 34.4534 39.5479 34.4909C39.9641 34.5284 40.3825 34.4493 40.7562 34.2625C41.13 34.0756 41.4443 33.7883 41.664 33.4329C41.8836 33.0774 42 32.6679 42 32.25V15.75C42 15.3321 41.8836 14.9226 41.664 14.5671C41.4443 14.2117 41.13 13.9244 40.7562 13.7375C40.3825 13.5507 39.9641 13.4716 39.5479 13.5091C39.1318 13.5466 38.7343 13.6993 38.4 13.95L33 18V16.5C33 14.9087 32.3679 13.3826 31.2426 12.2574C30.1174 11.1321 28.5913 10.5 27 10.5H12ZM33 21.75L39 17.25V30.75L33 26.25V21.75ZM30 16.5V31.5C30 32.2956 29.6839 33.0587 29.1213 33.6213C28.5587 34.1839 27.7956 34.5 27 34.5H12C11.2044 34.5 10.4413 34.1839 9.87868 33.6213C9.31607 33.0587 9 32.2956 9 31.5V16.5C9 15.7044 9.31607 14.9413 9.87868 14.3787C10.4413 13.8161 11.2044 13.5 12 13.5H27C27.7956 13.5 28.5587 13.8161 29.1213 14.3787C29.6839 14.9413 30 15.7044 30 16.5Z" fill="#9747FF"/>
</svg>
